<svg width="180" height="120" viewBox="0 0 180 120" fill="none" xmlns="http://www.w3.org/2000/svg">
<g clip-path="url(#clip0_84_229)">
<rect y="60" width="60" height="60" rx="30" fill="#F0CBCB"/>
<rect x="60" y="60" width="60" height="60" rx="30" fill="#F0CBCB"/>
<rect width="60" height="60" rx="30" fill="#D2F0CB"/>
<rect x="60" width="60" height="60" rx="30" fill="#CBF0D7"/>
<rect x="120" y="60" width="60" height="60" rx="30" fill="#F0CBCB"/>
<rect x="120" width="60" height="60" rx="30" fill="#D0F0CB"/>
<path d="M22.1584 31.9306C21.4454 30.7423 21.4454 29.2577 22.1584 28.0694V28.0694C22.376 27.7067 22.7364 27.4527 23.1511 27.3698L24.8441 27.0312C24.945 27.011 25.0359 26.9569 25.1018 26.8779L27.1708 24.395C28.3534 22.9759 28.9447 22.2664 29.4723 22.4574C30 22.6485 30 23.5721 30 25.4193L30 34.5807C30 36.4279 30 37.3515 29.4723 37.5426C28.9447 37.7336 28.3534 37.0241 27.1708 35.605L25.1018 33.1221C25.0359 33.0431 24.945 32.989 24.8441 32.9688L23.1511 32.6302C22.7364 32.5473 22.376 32.2933 22.1584 31.9306V31.9306Z" fill="#222222"/>
<path d="M32.5355 26.4645C33.4684 27.3973 33.9948 28.6611 34 29.9803C34.0052 31.2996 33.4888 32.5674 32.5633 33.5076" stroke="#222222" stroke-width="2" stroke-linecap="round"/>
<path d="M36.6569 24.3431C38.1494 25.8357 38.9916 27.8577 38.9999 29.9685C39.0083 32.0793 38.182 34.1078 36.7012 35.6121" stroke="#222222" stroke-width="2" stroke-linecap="round"/>
<path d="M90 40V37" stroke="#222222" stroke-width="2" stroke-linecap="round" stroke-linejoin="round"/>
<path d="M90 21C92.9729 21 95.4388 23.1624 95.915 26H94C93.4477 26 93 26.4477 93 27C93 27.5523 93.4477 28 94 28H96V30H94C93.4477 30 93 30.4477 93 31C93 31.5523 93.4477 32 94 32H95.915C95.4388 34.8376 92.9729 37 90 37C87.0271 37 84.5612 34.8376 84.085 32H87C87.5523 32 88 31.5523 88 31C88 30.4477 87.5523 30 87 30H84V28H87C87.5523 28 88 27.5523 88 27C88 26.4477 87.5523 26 87 26H84.085C84.5612 23.1624 87.0271 21 90 21Z" fill="#222222"/>
<rect x="154" y="30" width="4" height="7" rx="2" fill="#222222" stroke="#222222" stroke-width="2" stroke-linejoin="round"/>
<rect x="142" y="30" width="4" height="7" rx="2" fill="#222222" stroke="#222222" stroke-width="2" stroke-linejoin="round"/>
<path d="M142 31V34" stroke="#222222" stroke-width="2" stroke-linecap="round" stroke-linejoin="round"/>
<path d="M158 31V34" stroke="#222222" stroke-width="2" stroke-linecap="round" stroke-linejoin="round"/>
<path d="M158 31C158 28.6131 157.157 26.3239 155.657 24.636C154.157 22.9482 152.122 22 150 22C147.878 22 145.843 22.9482 144.343 24.636C142.843 26.3239 142 28.6131 142 31" stroke="#222222" stroke-width="2" stroke-linecap="round" stroke-linejoin="round"/>
<path d="M30 81C34.9706 81 39 85.0294 39 90C39 94.9706 34.9706 99 30 99C25.0294 99 21 94.9706 21 90C21 85.0294 25.0294 81 30 81ZM28.7832 85.9902C27.9835 85.5459 27.0003 86.1243 27 87.0391V92.9609C27.0003 93.8757 27.9835 94.4541 28.7832 94.0098L34.4268 90.874C35.1122 90.493 35.1122 89.507 34.4268 89.126L28.7832 85.9902Z" fill="#222222"/>
<path fill-rule="evenodd" clip-rule="evenodd" d="M97 93.9505V92H94.2525C94.018 92 93.9008 92 93.802 92.0098C92.854 92.1041 92.1041 92.854 92.0098 93.802C92 93.9008 92 94.018 92 94.2525C92 94.5322 92 94.6721 92.0124 94.7831C92.1332 95.8609 93.0909 96.646 94.1714 96.553C94.2827 96.5435 94.4199 96.516 94.6942 96.4612L94.9903 96.4019C95.3708 96.3258 95.561 96.2878 95.7215 96.2257C96.3765 95.9724 96.8506 95.394 96.9706 94.7021C97 94.5325 97 94.3385 97 93.9505ZM87 95.9505V94H84.2525C84.018 94 83.9008 94 83.802 94.0098C82.854 94.1041 82.1041 94.854 82.0098 95.802C82 95.9008 82 96.018 82 96.2525C82 96.5322 82 96.6721 82.0124 96.7831C82.1332 97.8609 83.0909 98.646 84.1714 98.553C84.2827 98.5435 84.4199 98.516 84.6942 98.4612L84.9903 98.4019C85.3708 98.3258 85.561 98.2878 85.7215 98.2257C86.3765 97.9724 86.8506 97.394 86.9706 96.7021C87 96.5325 87 96.3385 87 95.9505Z" fill="#222222"/>
<path d="M87 94V89M87 94V95.9505M87 94H84.2525M97 92V87M97 92V93.9505M97 92H94.2525M97 87L87 89M97 87V86.8792M87 89V87.2792M87 87.2792C87 85.7095 87 84.9246 87.4533 84.3716C87.9066 83.8187 88.6763 83.6647 90.2155 83.3569M87 87.2792V87.2792C87 85.7095 87 84.9246 87.4533 84.3716C87.4533 84.3716 87.4533 84.3716 87.4533 84.3716C87.9066 83.8187 88.6763 83.6647 90.2155 83.3569V83.3569M87 87.2792V95.9505M90.2155 83.3569L92.2155 82.9569M92.2155 82.9569C94.4291 82.5142 95.536 82.2928 96.268 82.8929C97 83.493 97 84.6218 97 86.8792M92.2155 82.9569V82.9569C94.4291 82.5142 95.536 82.2928 96.268 82.8929C97 83.493 97 84.6218 97 86.8792V86.8792M97 93.9505C97 94.3385 97 94.5325 96.9706 94.7021C96.8506 95.394 96.3765 95.9724 95.7215 96.2257C95.561 96.2878 95.3708 96.3258 94.9903 96.4019M97 93.9505V93.9505C97 94.3385 97 94.5325 96.9706 94.702C96.8506 95.394 96.3765 95.9724 95.7215 96.2257C95.561 96.2878 95.3708 96.3258 94.9903 96.4019V96.4019M94.9903 96.4019L94.6942 96.4612M94.6942 96.4612C94.4199 96.516 94.2827 96.5435 94.1714 96.553C93.0909 96.646 92.1332 95.8609 92.0124 94.7831C92 94.6721 92 94.5322 92 94.2525M94.6942 96.4612V96.4612C94.4199 96.516 94.2827 96.5435 94.1714 96.553C93.0909 96.646 92.1332 95.8609 92.0124 94.7831C92 94.6721 92 94.5322 92 94.2525V94.2525M92 94.2525C92 94.018 92 93.9008 92.0098 93.802C92.1041 92.854 92.854 92.1041 93.802 92.0098C93.9008 92 94.018 92 94.2525 92M92 94.2525V94.2525C92 94.018 92 93.9008 92.0098 93.8021C92.1041 92.854 92.854 92.1041 93.8021 92.0098C93.9008 92 94.018 92 94.2525 92V92M87 95.9505C87 96.3385 87 96.5325 86.9706 96.7021C86.8506 97.394 86.3765 97.9724 85.7215 98.2257C85.561 98.2878 85.3708 98.3258 84.9903 98.4019M87 95.9505V95.9505C87 96.3385 87 96.5325 86.9706 96.7021C86.8506 97.394 86.3765 97.9724 85.7215 98.2257C85.561 98.2878 85.3708 98.3258 84.9903 98.4019V98.4019M84.9903 98.4019L84.6942 98.4612M84.6942 98.4612C84.4199 98.516 84.2827 98.5435 84.1714 98.553C83.0909 98.646 82.1332 97.8609 82.0124 96.7831C82 96.6721 82 96.5322 82 96.2525M84.6942 98.4612V98.4612C84.4199 98.516 84.2827 98.5435 84.1714 98.553C83.0909 98.646 82.1332 97.8608 82.0124 96.7831C82 96.6721 82 96.5322 82 96.2525V96.2525M82 96.2525C82 96.018 82 95.9008 82.0098 95.802C82.1041 94.854 82.854 94.1041 83.802 94.0098C83.9008 94 84.018 94 84.2525 94M82 96.2525V96.2525C82 96.018 82 95.9008 82.0098 95.8021C82.1041 94.854 82.854 94.1041 83.8021 94.0098C83.9008 94 84.018 94 84.2525 94V94" stroke="#222222" stroke-width="2"/>
<path fill-rule="evenodd" clip-rule="evenodd" d="M151 94.7531V92H146.818C145.201 92 143.83 93.1888 143.602 94.7893C143.299 96.9099 145.095 98.7381 147.221 98.4724L147.778 98.4027C149.619 98.1727 151 96.608 151 94.7531Z" fill="#222222"/>
<path d="M151 86V85.3885C151 83.7702 151 82.961 151.474 82.4015C151.948 81.842 152.746 81.709 154.342 81.4429L156.699 81.0502C156.835 81.0275 156.903 81.0162 156.94 81.0559C156.976 81.0956 156.959 81.1624 156.926 81.2959L156.031 84.8772C156.016 84.9369 156.008 84.9667 155.987 84.9867C155.966 85.0067 155.936 85.0128 155.876 85.0248L151 86ZM151 86V92M151 92V94.7531C151 96.608 149.619 98.1727 147.778 98.4027L147.221 98.4724C145.095 98.7381 143.299 96.9099 143.602 94.7893C143.83 93.1888 145.201 92 146.818 92H151Z" stroke="#222222" stroke-width="2"/>
</g>
<defs>
<clipPath id="clip0_84_229">
<rect width="180" height="120" fill="white"/>
</clipPath>
</defs>
</svg>
